<?xml version="1.0" encoding="UTF-8" standalone="no"?><!DOCTYPE svg PUBLIC "-//W3C//DTD SVG 1.1//EN" "http://www.w3.org/Graphics/SVG/1.1/DTD/svg11.dtd"><svg width="100%" height="100%" viewBox="0 0 1647 880" version="1.1" xmlns="http://www.w3.org/2000/svg" xmlns:xlink="http://www.w3.org/1999/xlink" xml:space="preserve" xmlns:serif="http://www.serif.com/" style="fill-rule:evenodd;clip-rule:evenodd;stroke-linecap:round;stroke-linejoin:round;stroke-miterlimit:1.5;"><rect id="TextLogo.3" x="0.421" y="0.186" width="1646.38" height="879.465" style="fill:none;"/><g id="TextLogo.31" serif:id="TextLogo.3"><g id="Vinyl"><circle cx="750.717" cy="314.623" r="212.524"/><g id="chart"><path d="M808.615,420.925c59.529,-31.814 81.996,-105.862 50.182,-165.391c-21.189,-39.648 -62.435,-64.463 -107.39,-64.608l-0.263,81.028c15.15,0.049 29.049,8.411 36.19,21.772c10.721,20.061 3.15,45.015 -16.911,55.736l38.192,71.463Z" style="fill:#fa668b;"/><path d="M673.621,407.728c38.311,31.345 91.746,36.485 135.33,13.017l-38.146,-70.843c-14.89,8.017 -33.145,6.261 -46.234,-4.447l-50.95,62.273Z" style="fill:#f93365;"/><path d="M630.021,330.398c2.032,14.242 6.562,28.014 13.383,40.681c7.739,14.373 18.279,27.051 30.999,37.283l50.569,-62.858c-4.323,-3.478 -7.905,-7.787 -10.536,-12.672c-2.318,-4.305 -3.858,-8.986 -4.548,-13.827l-79.867,11.393Z" style="fill:#f00742;"/><path d="M647.984,247.398c-15.752,24.687 -22.117,54.209 -17.935,83.194l80.222,-11.575c-1.409,-9.762 0.735,-19.705 6.04,-28.02l-68.327,-43.599Z" style="fill:#bd0634;"/><path d="M694.616,204.714c-0.517,0.269 -1.032,0.542 -1.546,0.818c-19.207,10.342 -35.296,25.637 -46.597,44.297l68.548,41.514c3.891,-6.424 9.43,-11.689 16.042,-15.25c0.177,-0.095 0.355,-0.189 0.533,-0.282l-36.98,-71.097Z" style="fill:#8b0425;"/><path d="M752.218,190.931c-20.632,-0.204 -40.981,4.819 -59.148,14.601l38.07,70.703c6.23,-3.354 13.209,-5.077 20.285,-5.007l0.793,-80.297Z" style="fill:#63031b;"/></g><g id="lines"><circle cx="750.767" cy="313.911" r="11.74" style="fill:#2a2a2a;stroke:#000;stroke-width:4.11px;"/><circle cx="750.767" cy="314.623" r="63.669" style="fill:none;stroke:#000;stroke-width:4.11px;"/><ellipse cx="750.717" cy="314.433" rx="40.31" ry="40.5" style="fill:none;stroke:#000;stroke-width:4.11px;"/><circle cx="750.767" cy="314.623" r="95.269" style="fill:none;stroke:#000;stroke-width:4.11px;"/><circle cx="750.767" cy="313.911" r="122.852" style="fill:none;stroke:#000;stroke-width:4.11px;"/><circle cx="750.717" cy="313.911" r="152.775" style="fill:none;stroke:#2a2a2a;stroke-width:4.11px;"/><ellipse cx="750.767" cy="313.911" rx="182.471" ry="181.734" style="fill:none;stroke:#2a2a2a;stroke-width:4.11px;"/><circle cx="750.717" cy="314.623" r="212.524" style="fill:none;stroke:#000;stroke-width:4.11px;"/></g><g id="arm"><path d="M1014.53,170.611l-25.049,-5.228c-8.311,75.065 -16.622,137.974 -32.126,174.773c-16.589,39.376 -44.863,56.427 -67.939,66.551l1.924,24.08c36.517,-18.648 66.493,-37.82 81.417,-66.424c20.87,-40 25.26,-90.906 41.773,-193.752Z" style="fill:#7c4639;"/><path d="M901.494,428.909l-11.952,-25.174l-22.614,11.242c-3.587,1.257 -10.63,2.462 -15.067,2.251c-1.638,-0.078 -14.878,6.194 -21.857,9.171c-0.635,0.271 -0.879,0.86 -0.893,1.248c-0.023,0.679 0.131,1.308 0.397,2.008l14.051,28.41c0.026,0.062 0.52,1.019 1.142,1.145c0.713,0.145 1.53,-0.111 1.59,-0.14c4.953,-2.372 16.215,-7.022 17.957,-9.304c3.884,-5.089 11.306,-7.557 13.956,-9.236l23.29,-11.621Z" style="fill:#535353;"/><path d="M858.404,451.57l-6.449,3.098l4.416,9.195l6.45,-3.098l-4.417,-9.195Z" style="fill:#535353;"/><circle cx="996.205" cy="174.796" r="32.963" style="fill:#535353;"/><g id="lights"><path d="M1021.11,177.443c5.336,-10.919 9.241,-11.257 7.869,1.561c-1.41,13.177 -11.974,24.785 -24.531,27.917c-11.792,2.94 -28.793,-2.292 -16.362,-3.745c19.725,-2.306 25.053,-9.419 33.024,-25.733Z" style="fill:#a8a2a1;"/><path d="M989.595,317.448c-8.632,41.919 -28.878,70.093 -42.57,78.275c-2.446,1.462 -4.65,0.08 0.944,-4.969c9.802,-8.849 18.956,-25.596 22.973,-32.449c4.482,-7.645 8.775,-19.129 14.82,-40.857c3.368,-12.109 4.913,-5.244 3.833,0Z" style="fill:#ca8e80;"/><path d="M886.576,432.38c-6.876,2.652 -23.621,12.725 -29.188,19.19c-1.047,1.215 3.413,10.061 3.413,10.061c0.547,-0.414 2.02,-0.947 2.02,-0.947l-3.678,-7.641c0,0 4.122,-2.131 4.567,-2.685c2.997,-3.733 4.379,-4.257 5.868,-5.371c-0,-0 24.847,-12.744 28.659,-14.448c3.221,-1.439 2.393,-3.579 -11.661,1.841Z" style="fill:#a8a2a1;"/></g></g><g><path d="M310.914,475.438l0,126.29l-41.044,0l-0,114.012l-142.428,0l0,-304.5c0,-58.935 16.079,-104.716 48.236,-137.341c32.158,-32.625 77.353,-48.937 135.587,-48.937c56.129,-0 97.641,14.792 124.536,44.377c26.896,29.585 40.343,75.248 40.343,136.99l0,309.411l-142.427,0l-0,-299.939c-0,-18.71 -2.222,-31.69 -6.666,-38.94c-4.443,-7.25 -12.395,-10.875 -23.855,-10.875c-22.217,0 -33.326,16.605 -33.326,49.815l-0,59.637l41.044,-0Z" style="fill-rule:nonzero;"/><path d="M556.578,779.309l-63.59,-0l0,-141.463c0,-25.957 6.801,-47.097 20.404,-63.42c7.821,-9.408 17.767,-16.889 29.839,-22.443c12.072,-5.554 24.456,-8.332 37.151,-8.332c25.278,0 46.588,8.502 63.93,25.504c17.343,17.003 26.014,37.86 26.014,62.57c0,24.031 -8.614,44.774 -25.844,62.23c-17.229,17.456 -37.632,26.184 -61.209,26.184c-3.854,0 -9.522,-0.396 -17.003,-1.19l-0,-70.051c5.214,4.194 10.428,6.291 15.642,6.291c6.575,0 12.214,-2.437 16.918,-7.311c4.704,-4.874 7.056,-10.655 7.056,-17.343c0,-6.688 -2.437,-12.383 -7.311,-17.088c-4.874,-4.704 -10.712,-7.056 -17.513,-7.056c-16.322,0 -24.484,11.279 -24.484,33.836l0,139.082Z" style="fill-rule:nonzero;"/><path d="M742.947,779.309l-63.59,-0l0,-141.463c0,-25.957 6.801,-47.097 20.404,-63.42c7.821,-9.408 17.767,-16.889 29.839,-22.443c12.072,-5.554 24.456,-8.332 37.151,-8.332c25.278,0 46.588,8.502 63.93,25.504c17.343,17.003 26.014,37.86 26.014,62.57c0,24.031 -8.614,44.774 -25.844,62.23c-17.229,17.456 -37.632,26.184 -61.209,26.184c-3.854,0 -9.522,-0.396 -17.003,-1.19l-0,-70.051c5.214,4.194 10.428,6.291 15.642,6.291c6.575,0 12.214,-2.437 16.918,-7.311c4.704,-4.874 7.056,-10.655 7.056,-17.343c0,-6.688 -2.437,-12.383 -7.311,-17.088c-4.874,-4.704 -10.712,-7.056 -17.513,-7.056c-16.322,0 -24.484,11.279 -24.484,33.836l0,139.082Z" style="fill-rule:nonzero;"/><path d="M954.664,543.651c23.893,0 44.377,8.594 61.451,25.781c17.075,17.187 25.612,37.784 25.612,61.79c0,24.343 -8.65,45.081 -25.95,62.212c-17.3,17.13 -38.178,25.696 -62.634,25.696c-24.457,-0 -45.363,-8.594 -62.72,-25.781c-17.356,-17.187 -26.034,-37.896 -26.034,-62.127c0,-24.682 8.678,-45.448 26.034,-62.297c17.357,-16.849 38.77,-25.274 64.241,-25.274Zm-1.69,62.381c-6.763,0 -12.51,2.452 -17.244,7.354c-4.733,4.903 -7.1,10.904 -7.1,18.005c-0,6.987 2.395,12.96 7.185,17.919c4.789,4.959 10.509,7.439 17.159,7.439c6.762,-0 12.538,-2.48 17.328,-7.439c4.79,-4.959 7.184,-10.932 7.184,-17.919c0,-7.101 -2.366,-13.102 -7.1,-18.005c-4.733,-4.902 -10.538,-7.354 -17.412,-7.354Z" style="fill-rule:nonzero;"/><rect x="1056.94" y="248.03" width="63.385" height="464.32" style="fill-rule:nonzero;"/><rect x="1132.99" y="372.242" width="63.385" height="340.109" style="fill-rule:nonzero;"/><path d="M1298.55,543.651c23.893,0 44.376,8.594 61.451,25.781c17.074,17.187 25.612,37.784 25.612,61.79c-0,24.343 -8.65,45.081 -25.95,62.212c-17.3,17.13 -38.178,25.696 -62.635,25.696c-24.456,-0 -45.363,-8.594 -62.719,-25.781c-17.356,-17.187 -26.034,-37.896 -26.034,-62.127c-0,-24.682 8.678,-45.448 26.034,-62.297c17.356,-16.849 38.77,-25.274 64.241,-25.274Zm-1.691,62.381c-6.762,0 -12.51,2.452 -17.243,7.354c-4.734,4.903 -7.101,10.904 -7.101,18.005c0,6.987 2.395,12.96 7.185,17.919c4.79,4.959 10.51,7.439 17.159,7.439c6.762,-0 12.538,-2.48 17.328,-7.439c4.79,-4.959 7.185,-10.932 7.185,-17.919c0,-7.101 -2.367,-13.102 -7.1,-18.005c-4.734,-4.902 -10.538,-7.354 -17.413,-7.354Z" style="fill-rule:nonzero;"/><path d="M1549.35,712.351l-61.978,-0l0,-93.299c0,-9.501 -3.922,-14.251 -11.766,-14.251c-7.733,-0 -11.6,4.75 -11.6,14.251l0,93.299l-61.978,-0l0,-92.139c0,-21.543 7.126,-39.689 21.378,-54.437c14.251,-14.749 31.707,-22.124 52.366,-22.124c23.642,0 42.589,8.562 56.841,25.686c11.158,13.368 16.737,31.984 16.737,55.847l0,87.167Z" style="fill-rule:nonzero;"/></g></g></g></svg>