<?xml version="1.0" encoding="UTF-8" standalone="no"?><!DOCTYPE svg PUBLIC "-//W3C//DTD SVG 1.1//EN" "http://www.w3.org/Graphics/SVG/1.1/DTD/svg11.dtd"><svg width="100%" height="100%" viewBox="0 0 495 430" version="1.1" xmlns="http://www.w3.org/2000/svg" xmlns:xlink="http://www.w3.org/1999/xlink" xml:space="preserve" xmlns:serif="http://www.serif.com/" style="fill-rule:evenodd;clip-rule:evenodd;stroke-linecap:round;stroke-linejoin:round;stroke-miterlimit:1.5;"><g id="Vinyl"><circle cx="215.562" cy="215.06" r="212.524"/><g id="chart"><path d="M273.46,321.363c59.529,-31.815 81.996,-105.863 50.182,-165.392c-21.189,-39.648 -62.435,-64.462 -107.39,-64.608l-0.263,81.028c15.15,0.049 29.049,8.411 36.19,21.773c10.721,20.06 3.15,45.014 -16.911,55.735l38.192,71.464Z" style="fill:#fa668b;"/><path d="M138.466,308.165c38.311,31.345 91.746,36.485 135.33,13.018l-38.146,-70.844c-14.89,8.018 -33.145,6.262 -46.234,-4.447l-50.95,62.273Z" style="fill:#f93365;"/><path d="M94.866,230.835c2.032,14.242 6.562,28.014 13.383,40.681c7.739,14.374 18.279,27.051 30.999,37.283l50.569,-62.858c-4.323,-3.478 -7.905,-7.786 -10.536,-12.672c-2.318,-4.305 -3.858,-8.986 -4.548,-13.827l-79.867,11.393Z" style="fill:#f00742;"/><path d="M112.829,147.835c-15.752,24.687 -22.117,54.21 -17.935,83.194l80.222,-11.575c-1.409,-9.762 0.735,-19.705 6.04,-28.019l-68.327,-43.6Z" style="fill:#bd0634;"/><path d="M159.461,105.151c-0.517,0.269 -1.032,0.542 -1.546,0.819c-19.207,10.342 -35.296,25.637 -46.597,44.296l68.548,41.514c3.891,-6.424 9.43,-11.689 16.043,-15.25c0.176,-0.095 0.354,-0.189 0.532,-0.281l-36.98,-71.098Z" style="fill:#8b0425;"/><path d="M217.063,91.368c-20.632,-0.204 -40.98,4.819 -59.148,14.602l38.07,70.703c6.23,-3.355 13.209,-5.078 20.285,-5.008l0.793,-80.297Z" style="fill:#63031b;"/></g><g id="lines"><circle cx="215.612" cy="214.348" r="11.74" style="fill:#2a2a2a;stroke:#000;stroke-width:4.11px;"/><circle cx="215.612" cy="215.06" r="63.669" style="fill:none;stroke:#000;stroke-width:4.11px;"/><ellipse cx="215.562" cy="214.87" rx="40.31" ry="40.5" style="fill:none;stroke:#000;stroke-width:4.11px;"/><circle cx="215.612" cy="215.06" r="95.269" style="fill:none;stroke:#000;stroke-width:4.11px;"/><circle cx="215.612" cy="214.348" r="122.852" style="fill:none;stroke:#000;stroke-width:4.11px;"/><circle cx="215.562" cy="214.348" r="152.775" style="fill:none;stroke:#2a2a2a;stroke-width:4.11px;"/><ellipse cx="215.612" cy="214.348" rx="182.471" ry="181.734" style="fill:none;stroke:#2a2a2a;stroke-width:4.11px;"/><circle cx="215.562" cy="215.06" r="212.524" style="fill:none;stroke:#000;stroke-width:4.11px;"/></g><g id="arm"><path d="M479.38,71.048l-25.048,-5.228c-8.312,75.065 -16.622,137.974 -32.127,174.774c-16.589,39.375 -44.863,56.426 -67.939,66.551l1.924,24.079c36.517,-18.648 66.493,-37.82 81.417,-66.424c20.87,-40 25.26,-90.906 41.773,-193.752Z" style="fill:#7c4639;"/><path d="M366.339,329.346l-11.952,-25.173l-22.614,11.241c-3.587,1.257 -10.63,2.463 -15.067,2.251c-1.638,-0.078 -14.878,6.195 -21.857,9.171c-0.635,0.271 -0.879,0.86 -0.893,1.249c-0.023,0.678 0.132,1.307 0.397,2.007l14.051,28.41c0.026,0.062 0.52,1.019 1.142,1.146c0.713,0.145 1.53,-0.112 1.59,-0.141c4.953,-2.372 16.216,-7.022 17.957,-9.304c3.884,-5.089 11.306,-7.557 13.956,-9.236l23.29,-11.621Z" style="fill:#535353;"/><path d="M323.25,352.007l-6.45,3.098l4.416,9.195l6.45,-3.098l-4.416,-9.195Z" style="fill:#535353;"/><circle cx="461.05" cy="75.233" r="32.963" style="fill:#535353;"/><g id="lights"><path d="M485.957,77.88c5.336,-10.919 9.241,-11.257 7.869,1.561c-1.41,13.177 -11.973,24.785 -24.531,27.917c-11.792,2.94 -28.793,-2.292 -16.362,-3.745c19.726,-2.305 25.053,-9.418 33.024,-25.733Z" style="fill:#a8a2a1;"/><path d="M454.44,217.886c-8.632,41.919 -28.878,70.093 -42.57,78.274c-2.446,1.463 -4.65,0.08 0.944,-4.969c9.802,-8.849 18.956,-25.596 22.973,-32.448c4.482,-7.646 8.776,-19.13 14.82,-40.857c3.369,-12.11 4.913,-5.245 3.833,-0Z" style="fill:#ca8e80;"/><path d="M351.421,332.817c-6.876,2.652 -23.621,12.726 -29.188,19.19c-1.046,1.215 3.413,10.062 3.413,10.062c0.547,-0.415 2.02,-0.947 2.02,-0.947l-3.678,-7.642c0,0 4.122,-2.131 4.567,-2.685c2.997,-3.733 4.379,-4.256 5.868,-5.371c-0,-0 24.847,-12.744 28.66,-14.448c3.22,-1.439 2.392,-3.579 -11.662,1.841Z" style="fill:#a8a2a1;"/></g></g></g></svg>