<?xml version="1.0" encoding="UTF-8" standalone="no"?><!DOCTYPE svg PUBLIC "-//W3C//DTD SVG 1.1//EN" "http://www.w3.org/Graphics/SVG/1.1/DTD/svg11.dtd"><svg width="100%" height="100%" viewBox="0 0 430 430" version="1.1" xmlns="http://www.w3.org/2000/svg" xmlns:xlink="http://www.w3.org/1999/xlink" xml:space="preserve" xmlns:serif="http://www.serif.com/" style="fill-rule:evenodd;clip-rule:evenodd;stroke-linecap:round;stroke-linejoin:round;stroke-miterlimit:1.5;"><rect id="SecondDesign" x="0" y="0" width="429.663" height="429.598" style="fill:none;"/><g id="Vinyl"><circle cx="214.831" cy="214.799" r="212.524"/><g id="chart"><path d="M272.73,321.102c59.529,-31.815 81.996,-105.863 50.181,-165.392c-21.189,-39.648 -62.435,-64.462 -107.39,-64.608l-0.263,81.028c15.15,0.049 29.049,8.412 36.19,21.773c10.721,20.061 3.15,45.014 -16.911,55.736l38.193,71.463Z" style="fill:#fa668b;"/><path d="M137.735,307.904c38.311,31.345 91.746,36.485 135.33,13.018l-38.145,-70.844c-14.89,8.018 -33.146,6.262 -46.235,-4.447l-50.95,62.273Z" style="fill:#f93365;"/><path d="M94.136,230.574c2.031,14.242 6.562,28.014 13.382,40.681c7.739,14.374 18.28,27.051 30.999,37.284l50.57,-62.858c-4.323,-3.478 -7.906,-7.787 -10.536,-12.673c-2.319,-4.305 -3.859,-8.986 -4.549,-13.827l-79.866,11.393Z" style="fill:#f00742;"/><path d="M112.099,147.574c-15.753,24.687 -22.118,54.21 -17.936,83.194l80.222,-11.575c-1.409,-9.762 0.735,-19.705 6.041,-28.019l-68.327,-43.6Z" style="fill:#bd0634;"/><path d="M158.731,104.89c-0.518,0.269 -1.033,0.542 -1.546,0.819c-19.208,10.342 -35.297,25.637 -46.598,44.296l68.549,41.515c3.89,-6.424 9.429,-11.69 16.042,-15.25c0.176,-0.096 0.354,-0.189 0.532,-0.282l-36.979,-71.098Z" style="fill:#8b0425;"/><path d="M216.332,91.107c-20.632,-0.204 -40.98,4.82 -59.147,14.602l38.069,70.703c6.231,-3.355 13.209,-5.078 20.285,-5.008l0.793,-80.297Z" style="fill:#63031b;"/></g><g id="lines"><circle cx="214.881" cy="214.087" r="11.74" style="fill:#2a2a2a;stroke:#000;stroke-width:4.11px;"/><circle cx="214.881" cy="214.799" r="63.669" style="fill:none;stroke:#000;stroke-width:4.11px;"/><ellipse cx="214.831" cy="214.61" rx="40.31" ry="40.5" style="fill:none;stroke:#000;stroke-width:4.11px;"/><circle cx="214.881" cy="214.799" r="95.269" style="fill:none;stroke:#000;stroke-width:4.11px;"/><circle cx="214.881" cy="214.087" r="122.852" style="fill:none;stroke:#000;stroke-width:4.11px;"/><circle cx="214.831" cy="214.087" r="152.775" style="fill:none;stroke:#2a2a2a;stroke-width:4.11px;"/><ellipse cx="214.881" cy="214.087" rx="182.471" ry="181.734" style="fill:none;stroke:#2a2a2a;stroke-width:4.11px;"/><circle cx="214.831" cy="214.799" r="212.524" style="fill:none;stroke:#c7c7c7;stroke-width:4.11px;"/></g></g><g id="First-Designs" serif:id="First Designs"></g></svg>
